<svg width="120" height="28" viewBox="0 0 120 28" fill="none" xmlns="http://www.w3.org/2000/svg">
<path d="M5.09425 18.8804C3.32983 18.8804 2.61613 17.6409 2.61613 15.4913V9.54585H7.73098V7.28H2.61613V3.48423H0.138V15.7237C0.138 19.2096 1.38698 21.1462 4.51933 21.1462C6.06568 21.1462 7.33448 20.6039 8.08783 20.0036L7.31466 18.1251C6.79921 18.4737 6.06568 18.8804 5.09425 18.8804ZM15.7799 6.97014C14.0353 6.97014 12.37 7.4543 11.1211 8.20958L11.7753 10.1462C12.8855 9.56521 13.9164 9.13916 15.6213 9.13916C18.377 9.13916 18.7933 10.9015 18.7933 13.4385C17.8616 12.78 16.4143 12.567 15.324 12.567C12.3106 12.567 10.0505 14.1163 10.0505 16.905C10.0505 19.5388 11.7951 21.1075 14.3327 21.1075C16.6324 21.1075 17.9607 20.1779 18.7933 19.1321V20.8944H21.1327V12.5282C21.1327 9.00359 19.7449 6.97014 15.7799 6.97014ZM18.7735 17.1761C18.0598 17.9895 17.0091 18.9385 15.1852 18.9385C13.5794 18.9385 12.6674 18.0863 12.6674 16.7888C12.6674 15.2201 14.1543 14.5423 15.6412 14.5423C16.8505 14.5423 17.9012 14.8522 18.7735 15.4525V17.1761ZM32.2942 6.97014C30.3711 6.97014 28.5076 7.78352 27.556 8.8874V7.28H25.0779V26.9754H27.556V20.2747C28.5472 20.9138 30.0143 21.2043 31.5012 21.2043C35.8825 21.2043 38.7571 18.0282 38.7571 13.8645C38.7373 9.85571 36.2592 6.97014 32.2942 6.97014ZM31.2633 18.9385C29.935 18.9385 28.7851 18.6867 27.5362 17.8733V11.1145C28.4085 10.0494 29.9152 9.23599 31.5606 9.23599C34.4353 9.23599 36.0807 11.2113 36.0807 13.9613C36.1006 16.8469 34.237 18.9385 31.2633 18.9385ZM54.6568 6.98951L50.5728 7.95782C49.6212 7.31873 48.4119 6.95078 47.044 6.95078C43.5349 6.95078 41.3344 9.21662 41.3344 11.9473C41.3344 13.942 42.4842 15.6462 44.4667 16.4208C44.209 16.7307 44.09 17.1568 44.09 17.5635C44.09 17.9508 44.1892 18.3768 44.4271 18.6867C41.7507 19.2289 39.9664 20.6233 39.9664 22.8311C39.9664 25.7941 42.9997 27.1691 47.0638 27.1691C51.1279 27.1691 54.1611 25.736 54.1611 22.8311C54.1611 19.868 51.1279 18.4349 47.0638 18.4349C46.7862 18.4349 46.5087 18.4737 46.2311 18.4737C46.0527 18.2219 45.9536 17.8927 45.9536 17.5635C45.9536 17.3117 45.9932 17.0406 46.1122 16.8082C46.4294 16.8469 46.7268 16.8469 47.044 16.8469C50.4935 16.8469 52.7536 14.6585 52.7536 11.9473C52.7536 11.0951 52.5355 10.2818 52.0993 9.58458L54.7361 8.94549L54.6568 6.98951ZM47.0638 20.449C50.0375 20.449 51.8416 21.3592 51.8416 22.8698C51.8416 24.4191 49.9582 25.2325 47.0638 25.2325C44.1892 25.2325 42.286 24.3804 42.286 22.8698C42.286 21.3592 44.09 20.449 47.0638 20.449ZM47.044 14.9103C45.002 14.9103 43.6737 13.6708 43.6737 11.9666C43.6737 10.2624 45.002 8.94549 47.044 8.94549C49.1256 8.94549 50.4142 10.2818 50.4142 11.9666C50.4142 13.7289 48.9868 14.9103 47.044 14.9103ZM63.0824 6.97014C58.5028 6.97014 55.8859 10.1268 55.8859 14.0969C55.8859 18.3962 58.8399 21.2237 63.36 21.2237C65.2235 21.2237 67.2456 20.6427 68.5938 19.442L67.8206 17.5247C66.9285 18.3381 65.3424 18.9578 63.5384 18.9578C60.8025 18.9578 58.8795 17.4473 58.6614 14.8716H69.3867C69.4859 14.4455 69.5454 13.9032 69.5454 13.2448C69.5454 9.44902 66.6707 6.97014 63.0824 6.97014ZM58.5226 12.8768C58.8002 10.7853 60.406 9.23599 62.9635 9.23599C65.3821 9.23599 66.869 10.6304 66.9879 12.8768H58.5226ZM75.2153 8.86803V7.26064H72.7372V20.8944H75.2153V11.2307C75.7506 10.2237 76.5238 9.29409 78.1296 9.29409C78.9622 9.29409 79.3389 9.41028 80.013 9.81697L80.8853 7.55113C80.4293 7.2219 79.8544 7.02824 78.7243 7.02824C76.9401 7.02824 75.929 7.84162 75.2153 8.86803ZM83.522 20.8944H86.0001V7.26064H83.522V20.8944ZM84.8304 0.695496C83.9581 0.695496 83.2246 1.27648 83.2246 2.14796C83.2246 3.155 83.978 3.71662 84.8304 3.71662C85.6036 3.71662 86.357 3.13564 86.357 2.14796C86.3371 1.27648 85.6036 0.695496 84.8304 0.695496ZM97.459 7.02824C95.6351 7.02824 93.8706 7.89972 92.8992 8.94549V7.28H90.4211V20.9138H92.8992V11.0758C93.7913 10.0687 95.2584 9.31345 96.8444 9.31345C99.4415 9.31345 100.79 10.6497 100.79 13.4966V20.9138H103.268V13.0318C103.268 8.75183 101.087 7.02824 97.459 7.02824ZM120 13.2061C120 9.44902 117.125 6.97014 113.517 6.97014C108.938 6.97014 106.321 10.1268 106.321 14.0969C106.321 18.3962 109.275 21.2237 113.795 21.2237C115.658 21.2237 117.68 20.6427 119.029 19.442L118.255 17.5247C117.363 18.3381 115.777 18.9578 113.973 18.9578C111.237 18.9578 109.314 17.4473 109.096 14.8716H119.822C119.941 14.4261 120 13.8839 120 13.2061ZM108.957 12.8768C109.235 10.7853 110.841 9.23599 113.398 9.23599C115.817 9.23599 117.304 10.6304 117.423 12.8768H108.957Z" fill="white"/>
</svg>
