<svg width="153" height="32" viewBox="0 0 153 32" fill="none" xmlns="http://www.w3.org/2000/svg">
<path d="M152.79 8.00004H149.52V2.70349H146.585V8.00004H143.231V10.8138H146.585V24.5518H149.52V10.7725H152.79V8.00004ZM136.019 7.58625C135.046 7.53352 134.076 7.73534 133.207 8.1713C132.338 8.60726 131.602 9.26189 131.072 10.069V8.00004H128.137V24.5518H131.072V15.0759C131.018 14.4164 131.103 13.7531 131.319 13.1269C131.535 12.5006 131.879 11.9247 132.329 11.4345C133.126 10.6982 134.173 10.2846 135.264 10.2759C135.724 10.2528 136.184 10.3215 136.616 10.4779C137.049 10.6343 137.444 10.8753 137.78 11.1862C138.113 11.5395 138.367 11.9578 138.526 12.4139C138.685 12.87 138.745 13.354 138.702 13.8345V24.4276H141.637V13.669C141.656 12.522 141.397 11.3872 140.883 10.3587C140.419 9.47663 139.724 8.73355 138.87 8.20694C137.987 7.76549 137.009 7.53851 136.019 7.54487V7.58625ZM111.91 15.0759C112.069 13.7322 112.726 12.4941 113.755 11.6C114.812 10.7268 116.151 10.257 117.529 10.2759C118.816 10.2566 120.067 10.6975 121.051 11.5173C121.571 11.9636 121.995 12.5086 122.298 13.12C122.6 13.7313 122.775 14.3965 122.812 15.0759H111.91ZM125.747 17.5587C125.816 17.1208 125.844 16.6775 125.83 16.2345C125.837 14.716 125.493 13.2161 124.824 11.8483C124.182 10.5409 123.198 9.42663 121.973 8.62073C120.673 7.80436 119.152 7.40004 117.613 7.46211C116.027 7.45222 114.466 7.85163 113.084 8.62073C111.773 9.36279 110.698 10.4521 109.982 11.7656C109.229 13.1358 108.853 14.6765 108.891 16.2345C108.853 17.7925 109.229 19.3332 109.982 20.7035C110.698 22.0169 111.773 23.1063 113.084 23.8483C114.466 24.6174 116.027 25.0168 117.613 25.0069C119.339 25.0235 121.032 24.5338 122.476 23.6C123.783 22.7229 124.756 21.4419 125.243 19.9587H122.225C121.866 20.7264 121.242 21.3427 120.464 21.6966C119.414 22.216 118.238 22.4368 117.068 22.3345C115.898 22.2322 114.78 21.8108 113.839 21.1173C112.767 20.2113 112.079 18.9414 111.91 17.5587H125.747ZM97.4451 22.069C96.391 22.0778 95.3521 21.8215 94.4262 21.3242C93.523 20.8053 92.7718 20.0638 92.246 19.1725C91.7505 18.2555 91.4913 17.2323 91.4913 16.1931C91.4913 15.154 91.7505 14.1308 92.246 13.2138C92.7718 12.3225 93.523 11.581 94.4262 11.0621C95.3553 10.5731 96.3921 10.3173 97.4451 10.3173C98.498 10.3173 99.5348 10.5731 100.464 11.0621C101.367 11.581 102.118 12.3225 102.644 13.2138C103.14 14.1308 103.399 15.154 103.399 16.1931C103.399 17.2323 103.14 18.2555 102.644 19.1725C102.118 20.0638 101.367 20.8053 100.464 21.3242C99.5381 21.8215 98.4991 22.0778 97.4451 22.069ZM103.399 8.00004V10.8966C102.717 9.89198 101.795 9.06788 100.715 8.49659C99.5811 7.89599 98.3131 7.58316 97.0258 7.58625C95.5223 7.59852 94.0482 7.99789 92.7491 8.74487C91.4378 9.48692 90.3631 10.5763 89.6464 11.8897C88.8783 13.1973 88.4733 14.6817 88.4724 16.1931C88.4735 17.7307 88.8779 19.2418 89.6464 20.5794C90.3866 21.8756 91.4559 22.9594 92.7491 23.7242C94.0393 24.4919 95.5193 24.8928 97.0258 24.8828C98.2821 24.8914 99.5212 24.5938 100.633 24.0163C101.745 23.4388 102.695 22.5994 103.399 21.5725V23.8897C103.429 24.5733 103.318 25.2559 103.073 25.896C102.828 26.5362 102.454 27.1206 101.973 27.6138C100.828 28.5625 99.3559 29.037 97.8644 28.938C96.907 28.9806 95.9545 28.7812 95.0971 28.3587C94.3688 28.0556 93.7331 27.5708 93.2522 26.9518C92.8723 26.4498 92.6665 25.8404 92.6653 25.2138H89.7303C89.7352 26.4158 90.1486 27.5815 90.9043 28.5242C91.6794 29.5326 92.7252 30.3066 93.9231 30.7587C95.159 31.3178 96.5049 31.6004 97.8644 31.5862C99.3126 31.589 100.744 31.2783 102.057 30.6759C103.324 30.0995 104.399 29.1814 105.16 28.0276C105.959 26.7635 106.367 25.2966 106.334 23.8069V8.00004H103.399ZM82.9379 24.5518H85.9148V8.00004H82.9798L82.9379 24.5518ZM82.9379 5.02073H85.9148V1.37935H82.9798L82.9379 5.02073ZM76.3971 24.5518H79.3321V0.675903H76.3971V24.5518ZM69.8563 24.5518H72.7913V0.675903H69.8563V24.5518ZM53.5881 15.1173C53.7471 13.7736 54.4043 12.5355 55.433 11.6414C56.4895 10.7682 57.8286 10.2983 59.2065 10.3173C60.4938 10.298 61.7448 10.7389 62.7285 11.5587C63.2488 12.005 63.6728 12.55 63.9754 13.1614C64.2779 13.7727 64.4527 14.4379 64.4895 15.1173H53.5881ZM67.4244 17.6C67.4941 17.1622 67.5222 16.7189 67.5083 16.2759C67.5145 14.7574 67.1703 13.2575 66.502 11.8897C65.86 10.5823 64.8757 9.46801 63.6509 8.66211C62.3513 7.84573 60.8296 7.44142 59.2904 7.50349C57.7044 7.4936 56.1434 7.89301 54.7621 8.66211C53.4508 9.40416 52.3761 10.4935 51.6594 11.8069C50.9071 13.1772 50.5313 14.7179 50.5693 16.2759C50.5313 17.8339 50.9071 19.3746 51.6594 20.7449C52.3761 22.0583 53.4508 23.1476 54.7621 23.8897C56.1434 24.6588 57.7044 25.0582 59.2904 25.0483C61.017 25.0649 62.7097 24.5752 64.154 23.6414C65.4603 22.7643 66.4338 21.4832 66.9213 20H63.9025C63.5439 20.7678 62.9194 21.3841 62.1415 21.738C61.0915 22.2573 59.9158 22.4782 58.7459 22.3759C57.5759 22.2736 56.4579 21.8522 55.5168 21.1587C54.9719 20.7218 54.5206 20.182 54.1894 19.571C53.8583 18.96 53.6539 18.2899 53.5881 17.6H67.4244ZM50.15 8.00004H46.8796V2.70349H43.9865V8.00004H40.6323V10.8138H43.9865V24.5518H46.9215V10.7725H50.1919L50.15 8.00004ZM29.7309 22.1931C28.6769 22.2019 27.638 21.9456 26.7121 21.4483C25.8089 20.9294 25.0577 20.188 24.5318 19.2966C24.0363 18.3797 23.7771 17.3565 23.7771 16.3173C23.7771 15.2781 24.0363 14.2549 24.5318 13.338C25.034 12.4289 25.7909 11.6818 26.7121 11.1862C27.6412 10.6972 28.678 10.4414 29.7309 10.4414C30.7839 10.4414 31.8207 10.6972 32.7498 11.1862C33.653 11.7052 34.4042 12.4466 34.93 13.338C35.4256 14.2549 35.6848 15.2781 35.6848 16.3173C35.6848 17.3565 35.4256 18.3797 34.93 19.2966C34.4279 20.2057 33.6709 20.9527 32.7498 21.4483C31.8318 21.9652 30.7874 22.2229 29.7309 22.1931ZM35.7267 1.37935V10.8138C35.0347 9.78094 34.0849 8.94136 32.9686 8.37604C31.8523 7.81072 30.6073 7.53872 29.3536 7.58625C27.875 7.58758 26.425 7.98826 25.1608 8.74487C23.868 9.51029 22.7989 10.5939 22.0581 11.8897C21.2884 13.2268 20.8838 14.7382 20.8838 16.2759C20.8838 17.8137 21.2884 19.325 22.0581 20.6621C22.7989 21.9579 23.868 23.0415 25.1608 23.8069C26.425 24.5635 27.875 24.9642 29.3536 24.9656C30.635 25.006 31.9054 24.721 33.0433 24.138C34.1066 23.5437 35.0231 22.724 35.7267 21.738V24.5518H38.6617V1.37935H35.7267ZM9.31189 22.2345C8.25784 22.2433 7.2189 21.987 6.29305 21.4897C5.38984 20.9708 4.63859 20.2294 4.11279 19.338C3.61727 18.421 3.35808 17.3978 3.35808 16.3587C3.35808 15.3195 3.61727 14.2963 4.11279 13.3794C4.61494 12.4702 5.37189 11.7232 6.29305 11.2276C7.22214 10.7386 8.25892 10.4828 9.31189 10.4828C10.3649 10.4828 11.4016 10.7386 12.3307 11.2276C13.2339 11.7466 13.9852 12.488 14.511 13.3794C15.0065 14.2963 15.2657 15.3195 15.2657 16.3587C15.2657 17.3978 15.0065 18.421 14.511 19.338C14.0088 20.2471 13.2519 20.9941 12.3307 21.4897C11.4127 22.0066 10.3683 22.2642 9.31189 22.2345ZM15.2657 8.00004V10.8138C14.5738 9.78094 13.6239 8.94136 12.5076 8.37604C11.3913 7.81072 10.1463 7.53872 8.89261 7.58625C7.3859 7.59093 5.90774 7.9922 4.61057 8.74867C3.31341 9.50514 2.2442 10.5894 1.51323 11.8897C0.743596 13.2268 0.338974 14.7382 0.338974 16.2759C0.338974 17.8137 0.743596 19.325 1.51323 20.6621C2.2442 21.9624 3.31341 23.0467 4.61057 23.8031C5.90774 24.5596 7.3859 24.9609 8.89261 24.9656C10.174 25.006 11.4445 24.721 12.5823 24.138C13.6456 23.5437 14.5621 22.724 15.2657 21.738V24.5518H18.2007V8.00004H15.2657Z" fill="black"/>
</svg>
